<svg width="30" height="28" viewBox="0 0 30 28" fill="none" xmlns="http://www.w3.org/2000/svg">
<ellipse cx="15" cy="14" rx="15" ry="14" fill="#EDEDED"/>
<path d="M8 20C6.58333 20 5.396 19.521 4.438 18.563C3.48 17.605 3.00067 16.4173 3 15C2.99933 13.5827 3.487 12.3953 4.463 11.438C5.439 10.4807 6.618 10.0013 8 10C9.28333 10 10.3627 10.3833 11.238 11.15C12.1133 11.9167 12.6673 12.8667 12.9 14H13.55L11.75 9H11C10.7167 9 10.4793 8.904 10.288 8.712C10.0967 8.52 10.0007 8.28267 10 8C9.99933 7.71733 10.0953 7.48 10.288 7.288C10.4807 7.096 10.718 7 11 7H14C14.2833 7 14.521 7.096 14.713 7.288C14.905 7.48 15.0007 7.71733 15 8C14.9993 8.28267 14.9033 8.52033 14.712 8.713C14.5207 8.90567 14.2833 9.00133 14 9H13.9L14.25 10H19.05L17.6 6H16C15.7167 6 15.4793 5.904 15.288 5.712C15.0967 5.52 15.0007 5.28267 15 5C14.9993 4.71733 15.0953 4.48 15.288 4.288C15.4807 4.096 15.718 4 16 4H17.6C18.0333 4 18.421 4.11667 18.763 4.35C19.105 4.58333 19.3507 4.9 19.5 5.3L21.2 9.95H22C23.3833 9.95 24.5627 10.4377 25.538 11.413C26.5133 12.3883 27.0007 13.5673 27 14.95C27 16.35 26.5167 17.5417 25.55 18.525C24.5833 19.5083 23.4 20 22 20C20.8 20 19.746 19.625 18.838 18.875C17.93 18.125 17.3507 17.1667 17.1 16H12.9C12.6667 17.15 12.1 18.1043 11.2 18.863C10.3 19.6217 9.23333 20.0007 8 20ZM8 18C8.68333 18 9.271 17.8127 9.763 17.438C10.255 17.0633 10.6007 16.584 10.8 16H9C8.71667 16 8.47933 15.904 8.288 15.712C8.09667 15.52 8.00067 15.2827 8 15C7.99933 14.7173 8.09533 14.48 8.288 14.288C8.48067 14.096 8.718 14 9 14H10.8C10.6 13.4 10.2543 12.9167 9.763 12.55C9.27167 12.1833 8.684 12 8 12C7.15 12 6.43767 12.2877 5.863 12.863C5.28833 13.4383 5.00067 14.1507 5 15C5 15.8333 5.28767 16.5417 5.863 17.125C6.43833 17.7083 7.15067 18 8 18ZM15.7 14H17.1C17.1833 13.6167 17.296 13.2583 17.438 12.925C17.58 12.5917 17.7673 12.2833 18 12H14.95L15.7 14ZM22 18C22.85 18 23.5627 17.7083 24.138 17.125C24.7133 16.5417 25.0007 15.8333 25 15C25 14.15 24.7127 13.4377 24.138 12.863C23.5633 12.2883 22.8507 12.0007 22 12H21.9L22.55 13.725C22.65 13.9917 22.6417 14.246 22.525 14.488C22.4083 14.73 22.2167 14.9007 21.95 15C21.6833 15.0993 21.425 15.091 21.175 14.975C20.925 14.859 20.75 14.6673 20.65 14.4L20.05 12.7C19.7167 12.9833 19.4583 13.3167 19.275 13.7C19.0917 14.0833 19 14.5167 19 15C19 15.8333 19.2877 16.5417 19.863 17.125C20.4383 17.7083 21.1507 18 22 18Z" fill="url(#paint0_linear_2118_180)"/>
<defs>
<linearGradient id="paint0_linear_2118_180" x1="15" y1="4" x2="15" y2="20" gradientUnits="userSpaceOnUse">
<stop stop-color="#664400"/>
<stop offset="1" stop-color="#A66E00"/>
</linearGradient>
</defs>
</svg>
